PathFileType	4	(X/Y/Z)	D:\TRACE\spot_10-12-23\spot_arm_body_motion_1_2-platform.trc
DataRate	CameraRate	NumFrames	NumMarkers	Units	OrigDataRate	OrigDataStartFrame	OrigNumFrames
100.00	100.00	      24	5	mm	100.00	4376	      7000
Frame#	Time	Left_Front			Right_Front			Left_Aft			Right_Aft			Post			
		X1	Y1	Z1	X2	Y2	Z2	X3	Y3	Z3	X4	Y4	Z4	X5	Y5	Z5	

4376	43.750	-758.54071	10.34515	-651.68060	808.99384	8.65118	-626.76868	-687.23468	11.08748	486.96518	722.46796	10.72857	587.47162	43.05885	742.70001	-962.64740	
4377	43.760	-759.15240	10.77547	-651.61566	808.11841	9.23645	-626.62720	-688.01520	10.88445	487.04922	721.98993	10.60262	587.50079	41.92629	743.38434	-962.46613	
4378	43.770	-760.32538	11.44270	-651.61316	807.35278	9.61085	-626.60693	-688.68646	10.71798	487.09351	721.23895	10.42246	587.56348	42.47013	743.87097	-960.80774	
4379	43.780	-761.07690	11.72934	-651.48608	806.51074	9.88059	-626.55713	-689.68036	10.48495	487.18307	720.18768	9.93508	587.61786	40.81104	744.37286	-961.38000	
4380	43.790	-761.80316	11.88964	-651.40698	805.61011	10.30066	-626.45624	-690.45050	10.09934	487.31064	719.25824	9.47811	587.63116	39.81931	745.05054	-960.75635	
4381	43.800	-762.69836	12.27127	-651.20148	804.75903	10.62932	-626.36810	-691.22577	9.79973	487.41101	718.47034	9.24557	587.80902	39.18430	745.56329	-960.27930	
4382	43.810	-763.49548	12.76005	-651.21893	803.88745	11.09475	-626.31775	-692.20410	9.52749	487.55145	717.60614	8.89286	587.96252	38.34350	746.07959	-959.68713	
4383	43.820	-764.33252	13.19734	-651.15881	802.99799	11.61593	-626.18878	-692.93079	9.42054	487.66583	716.84381	8.61384	587.94318	37.54799	746.83698	-959.05981	
4384	43.830	-765.36987	13.65049	-650.89526	802.34167	12.03326	-626.00732	-693.92328	9.11807	487.66812	715.82574	8.19332	587.94934	37.12334	747.55975	-958.19604	
4385	43.840	-766.10065	13.88821	-650.78522	801.27075	12.43051	-625.94049	-694.87909	8.75708	487.69620	715.01917	7.93004	588.14563	35.25270	748.06482	-957.90424	
4386	43.850	-767.16205	14.44515	-650.81671	800.32471	12.60992	-625.91229	-695.64801	8.44686	487.67743	714.09247	7.45928	588.30688	34.73640	748.46509	-957.52960	
4387	43.860	-767.96442	14.85120	-651.00043	799.43634	12.97016	-625.81519	-696.72510	8.25906	487.73843	713.12579	6.80187	587.97711	33.73546	749.30475	-956.64966	
4388	43.870	-768.84558	15.43971	-650.67407	798.56915	13.52169	-625.77283	-697.60468	8.14426	487.84000	712.35620	6.65090	588.15997	32.91359	749.87933	-956.14648	
4389	43.880	-769.71368	15.83830	-650.45795	797.71338	13.93429	-625.71698	-698.26990	7.82605	487.98035	711.62982	6.52992	588.39221	31.97556	750.38275	-955.47937	
4390	43.890	-770.81232	16.22416	-650.41492	796.77271	14.36831	-625.67975	-699.33667	7.52020	488.10104	710.62598	6.17370	588.43921	30.98859	751.06439	-955.00128	
4391	43.900	-771.67291	16.51321	-650.41779	795.84460	14.63621	-625.46240	-700.21277	7.26535	488.18375	709.59882	5.78203	588.61932	31.03131	751.78345	-953.44153	
4392	43.910	-772.54419	16.91554	-650.24817	794.86670	15.07448	-625.35266	-701.14410	6.89913	488.27090	708.68866	5.53079	588.65662	29.04803	752.04962	-954.12958	
4393	43.920	-773.31720	17.22801	-650.07043	794.01379	15.49053	-625.30475	-702.08893	6.67453	488.27838	707.71179	5.25769	588.68817	28.11016	752.77917	-953.60681	
4394	43.930	-774.41718	17.77607	-650.12305	793.15222	15.95071	-625.15680	-702.96948	6.37213	488.43906	706.85944	4.86018	588.82739	27.26869	753.47607	-953.21448	
4395	43.940	-775.28345	18.16865	-649.94458	792.19812	16.36388	-625.11029	-703.95520	6.12869	488.54233	705.95233	4.57031	588.93555	26.51931	754.01868	-952.88538	
4396	43.950	-776.18073	18.49179	-649.84424	791.15308	16.66162	-625.03937	-704.94958	5.86364	488.57959	705.05872	4.20454	588.99573	25.35550	754.56592	-952.16876	
4397	43.960	-777.12866	18.96743	-649.76575	790.14496	17.09039	-624.95618	-705.77557	5.56929	488.73007	703.95026	3.69630	589.04047	25.16360	755.45599	-951.22180	
4398	43.970	-778.18048	19.59562	-649.78888	789.29248	17.50393	-624.89008	-706.87555	5.25100	488.78299	702.95575	3.40903	589.18573	23.96831	755.86810	-950.67157	
4399	43.980	-779.13672	20.01678	-649.75031	788.29413	18.01845	-624.76489	-707.64496	5.02027	488.93546	702.26471	3.20422	589.18213	22.45781	756.38684	-950.62177	
